<mxfile host="app.diagrams.net" agent="Mozilla/5.0 (Windows NT 10.0; Win64; x64) AppleWebKit/537.36 (KHTML, like Gecko) Chrome/132.0.0.0 Safari/537.36 OPR/117.0.0.0" version="26.2.12">
  <diagram name="Page-1" id="QxjGI0RIdibdxk6ym9tc">
    <mxGraphModel dx="497" dy="864" grid="1" gridSize="10" guides="1" tooltips="1" connect="1" arrows="1" fold="1" page="1" pageScale="1" pageWidth="850" pageHeight="1100" math="0" shadow="0">
      <root>
        <mxCell id="0" />
        <mxCell id="1" parent="0" />
        <mxCell id="MRNEeJMvjfQCmDEyWPny-1" value="User" style="shape=umlActor;verticalLabelPosition=bottom;verticalAlign=top;html=1;outlineConnect=0;" vertex="1" parent="1">
          <mxGeometry x="150" y="220" width="50" height="110" as="geometry" />
        </mxCell>
        <mxCell id="MRNEeJMvjfQCmDEyWPny-2" value="" style="rounded=0;whiteSpace=wrap;html=1;" vertex="1" parent="1">
          <mxGeometry x="280" y="100" width="310" height="390" as="geometry" />
        </mxCell>
        <mxCell id="MRNEeJMvjfQCmDEyWPny-3" value="QueueSimulation App" style="text;html=1;align=center;verticalAlign=middle;whiteSpace=wrap;rounded=0;" vertex="1" parent="1">
          <mxGeometry x="370" y="70" width="140" height="30" as="geometry" />
        </mxCell>
        <mxCell id="MRNEeJMvjfQCmDEyWPny-4" value="Configure Simulation" style="ellipse;whiteSpace=wrap;html=1;" vertex="1" parent="1">
          <mxGeometry x="360" y="120" width="140" height="60" as="geometry" />
        </mxCell>
        <mxCell id="MRNEeJMvjfQCmDEyWPny-5" value="Start Simulation" style="ellipse;whiteSpace=wrap;html=1;" vertex="1" parent="1">
          <mxGeometry x="360" y="200" width="140" height="60" as="geometry" />
        </mxCell>
        <mxCell id="MRNEeJMvjfQCmDEyWPny-6" value="View Simulation Porgress" style="ellipse;whiteSpace=wrap;html=1;" vertex="1" parent="1">
          <mxGeometry x="360" y="290" width="150" height="60" as="geometry" />
        </mxCell>
        <mxCell id="MRNEeJMvjfQCmDEyWPny-7" value="View Simulation Results" style="ellipse;whiteSpace=wrap;html=1;" vertex="1" parent="1">
          <mxGeometry x="360" y="370" width="140" height="60" as="geometry" />
        </mxCell>
        <mxCell id="MRNEeJMvjfQCmDEyWPny-10" value="" style="endArrow=classic;html=1;rounded=0;exitX=1;exitY=0.3333333333333333;exitDx=0;exitDy=0;exitPerimeter=0;entryX=0;entryY=0.5;entryDx=0;entryDy=0;" edge="1" parent="1" source="MRNEeJMvjfQCmDEyWPny-1" target="MRNEeJMvjfQCmDEyWPny-4">
          <mxGeometry width="50" height="50" relative="1" as="geometry">
            <mxPoint x="350" y="470" as="sourcePoint" />
            <mxPoint x="400" y="420" as="targetPoint" />
          </mxGeometry>
        </mxCell>
        <mxCell id="MRNEeJMvjfQCmDEyWPny-11" value="" style="endArrow=classic;html=1;rounded=0;exitX=1;exitY=0.3333333333333333;exitDx=0;exitDy=0;exitPerimeter=0;entryX=0;entryY=0.5;entryDx=0;entryDy=0;" edge="1" parent="1" source="MRNEeJMvjfQCmDEyWPny-1" target="MRNEeJMvjfQCmDEyWPny-5">
          <mxGeometry width="50" height="50" relative="1" as="geometry">
            <mxPoint x="350" y="470" as="sourcePoint" />
            <mxPoint x="400" y="420" as="targetPoint" />
          </mxGeometry>
        </mxCell>
        <mxCell id="MRNEeJMvjfQCmDEyWPny-12" value="" style="endArrow=classic;html=1;rounded=0;exitX=0;exitY=0.5;exitDx=0;exitDy=0;" edge="1" parent="1" source="MRNEeJMvjfQCmDEyWPny-6" target="MRNEeJMvjfQCmDEyWPny-1">
          <mxGeometry width="50" height="50" relative="1" as="geometry">
            <mxPoint x="350" y="470" as="sourcePoint" />
            <mxPoint x="400" y="420" as="targetPoint" />
          </mxGeometry>
        </mxCell>
        <mxCell id="MRNEeJMvjfQCmDEyWPny-13" value="" style="endArrow=classic;html=1;rounded=0;exitX=0;exitY=0.5;exitDx=0;exitDy=0;" edge="1" parent="1" source="MRNEeJMvjfQCmDEyWPny-7" target="MRNEeJMvjfQCmDEyWPny-1">
          <mxGeometry width="50" height="50" relative="1" as="geometry">
            <mxPoint x="350" y="470" as="sourcePoint" />
            <mxPoint x="400" y="420" as="targetPoint" />
          </mxGeometry>
        </mxCell>
      </root>
    </mxGraphModel>
  </diagram>
</mxfile>
